<svg width="0" height="0" class="hidden">
  <symbol fill="none" xmlns="http://www.w3.org/2000/svg" viewBox="0 0 256 256" id="check">
    <path d="M232.49 80.49L104.49 208.49C103.375 209.609 102.05 210.496 100.592 211.102C99.1332 211.708 97.5694 212.019 95.99 212.019C94.4106 212.019 92.8468 211.708 91.3882 211.102C89.9295 210.496 88.6048 209.609 87.49 208.49L31.49 152.49C30.3738 151.374 29.4883 150.049 28.8842 148.59C28.2801 147.132 27.9692 145.569 27.9692 143.99C27.9692 142.411 28.2801 140.848 28.8842 139.39C29.4883 137.931 30.3738 136.606 31.49 135.49C32.6062 134.374 33.9314 133.488 35.3898 132.884C36.8483 132.28 38.4114 131.969 39.99 131.969C41.5686 131.969 43.1317 132.28 44.5902 132.884C46.0486 133.488 47.3738 134.374 48.49 135.49L96 183L215.51 63.51C217.764 61.2557 220.822 59.9892 224.01 59.9892C227.198 59.9892 230.256 61.2557 232.51 63.51C234.764 65.7643 236.031 68.8219 236.031 72.01C236.031 75.1981 234.764 78.2557 232.51 80.51L232.49 80.49Z" fill="#0FA958"></path>
  </symbol>
  <symbol fill="none" xmlns="http://www.w3.org/2000/svg" viewBox="0 0 24 24" id="email">
    <path d="M22 6C22 4.9 21.1 4 20 4H4C2.9 4 2 4.9 2 6V18C2 19.1 2.9 20 4 20H20C21.1 20 22 19.1 22 18V6ZM20 6L12 11L4 6H20ZM20 18H4V8L12 13L20 8V18Z" fill="#FE4E00"></path>
  </symbol>
  <symbol fill="none" xmlns="http://www.w3.org/2000/svg" viewBox="0 0 24 24" id="facebook">
    <path d="M20.9 2H3.1C2.80826 2 2.52847 2.11589 2.32218 2.32218C2.11589 2.52847 2 2.80826 2 3.1V20.9C2 21.1917 2.11589 21.4715 2.32218 21.6778C2.52847 21.8841 2.80826 22 3.1 22H12.68V14.25H10.08V11.25H12.68V9C12.6261 8.47176 12.6885 7.93813 12.8627 7.43654C13.0369 6.93495 13.3188 6.47755 13.6885 6.09641C14.0582 5.71528 14.5068 5.41964 15.0028 5.23024C15.4989 5.04083 16.0304 4.96225 16.56 5C17.3383 4.99521 18.1163 5.03528 18.89 5.12V7.82H17.3C16.04 7.82 15.8 8.42 15.8 9.29V11.22H18.8L18.41 14.22H15.8V22H20.9C21.0445 22 21.1875 21.9715 21.321 21.9163C21.4544 21.861 21.5757 21.78 21.6778 21.6778C21.78 21.5757 21.861 21.4544 21.9163 21.321C21.9715 21.1875 22 21.0445 22 20.9V3.1C22 2.95555 21.9715 2.81251 21.9163 2.67905C21.861 2.54559 21.78 2.42433 21.6778 2.32218C21.5757 2.22004 21.4544 2.13901 21.321 2.08373C21.1875 2.02845 21.0445 2 20.9 2Z" fill="#FE4E00"></path>
  </symbol>
  <symbol fill="none" xmlns="http://www.w3.org/2000/svg" viewBox="0 0 128 128" id="linkedin">
    <path d="M116 3H12C9.64031 2.97599 7.36747 3.88905 5.68019 5.53883C3.99291 7.18862 3.02901 9.44037 3 11.8V116.22C3.03426 118.576 4.00046 120.823 5.68717 122.468C7.37388 124.114 9.64373 125.024 12 125H116C118.36 125.019 120.631 124.103 122.318 122.452C124.004 120.801 124.968 118.55 125 116.19V11.77C124.958 9.41729 123.989 7.17627 122.304 5.53406C120.618 3.89185 118.353 2.98118 116 3ZM39.17 107H21.06V48.73H39.17V107ZM30.17 40.79C28.0929 40.792 26.0618 40.1779 24.3338 39.0253C22.6058 37.8727 21.2584 36.2336 20.4621 34.3151C19.6659 32.3967 19.4565 30.2852 19.8605 28.2477C20.2646 26.2102 21.2638 24.3384 22.7318 22.8689C24.1999 21.3995 26.0708 20.3985 28.1079 19.9925C30.1449 19.5865 32.2567 19.7939 34.1759 20.5883C36.0951 21.3827 37.7355 22.7285 38.8897 24.4555C40.0439 26.1824 40.66 28.2129 40.66 30.29C40.6574 31.6706 40.3825 33.0371 39.8512 34.3113C39.3198 35.5855 38.5424 36.7424 37.5634 37.7159C36.5844 38.6893 35.4231 39.4601 34.1458 39.9842C32.8686 40.5082 31.5006 40.7753 30.12 40.77L30.17 40.79ZM107 107H88.89V78.65C88.89 71.9 88.77 63.21 79.48 63.21C70.19 63.21 68.61 70.57 68.61 78.21V107H50.53V48.73H67.89V56.73H68.13C70.55 52.15 76.45 47.32 85.26 47.32C103.6 47.28 107 59.35 107 75V107Z" fill="#FE4E00"></path>
  </symbol>
  <symbol fill="none" xmlns="http://www.w3.org/2000/svg" viewBox="0 0 512 512" id="location">
    <path d="M256 48C176.5 48 112 109.39 112 185C112 272 208 409.87 243.25 457.49C244.713 459.5 246.631 461.136 248.847 462.264C251.063 463.391 253.514 463.979 256 463.979C258.486 463.979 260.937 463.391 263.153 462.264C265.369 461.136 267.287 459.5 268.75 457.49C304 409.89 400 272.07 400 185C400 109.39 335.5 48 256 48Z" stroke="#FE4E00" stroke-width="32" stroke-linecap="round" stroke-linejoin="round"></path>
    <path d="M256 240C282.51 240 304 218.51 304 192C304 165.49 282.51 144 256 144C229.49 144 208 165.49 208 192C208 218.51 229.49 240 256 240Z" stroke="#FE4E00" stroke-width="32" stroke-linecap="round" stroke-linejoin="round"></path>
  </symbol>
  <symbol fill="none" xmlns="http://www.w3.org/2000/svg" viewBox="0 0 36 36" id="mobile">
    <g clip-path="url(#clip0_5_11)">
      <path d="M25 4H11C10.4696 4 9.96086 4.21071 9.58579 4.58579C9.21071 4.96086 9 5.46957 9 6V30C9 30.5304 9.21071 31.0391 9.58579 31.4142C9.96086 31.7893 10.4696 32 11 32H25C25.5304 32 26.0391 31.7893 26.4142 31.4142C26.7893 31.0391 27 30.5304 27 30V6C27 5.46957 26.7893 4.96086 26.4142 4.58579C26.0391 4.21071 25.5304 4 25 4ZM19 30H17V28H19V30ZM11 26V6H25V26H11Z" fill="#FE4E00"></path>
    </g>
    <defs>
      <clipPath id="clip0_5_11">
        <rect width="36" height="36" fill="white"></rect>
      </clipPath>
    </defs>
  </symbol>
  <symbol fill="none" xmlns="http://www.w3.org/2000/svg" viewBox="0 0 24 24" id="twitter">
    <path d="M22.46 6C21.69 6.35 20.86 6.58 20 6.69C20.88 6.16 21.56 5.32 21.88 4.31C21.05 4.81 20.13 5.16 19.16 5.36C18.37 4.5 17.26 4 16 4C13.65 4 11.73 5.92 11.73 8.29C11.73 8.63 11.77 8.96 11.84 9.27C8.28001 9.09 5.11001 7.38 3.00001 4.79C2.63001 5.42 2.42001 6.16 2.42001 6.94C2.42001 8.43 3.17001 9.75 4.33001 10.5C3.62001 10.5 2.96001 10.3 2.38001 10V10.03C2.38001 12.11 3.86001 13.85 5.82001 14.24C5.19074 14.4122 4.5301 14.4362 3.89001 14.31C4.16162 15.1625 4.69355 15.9084 5.41103 16.4429C6.1285 16.9775 6.99546 17.2737 7.89001 17.29C6.37364 18.4904 4.494 19.1393 2.56001 19.13C2.22001 19.13 1.88001 19.11 1.54001 19.07C3.44001 20.29 5.70001 21 8.12001 21C16 21 20.33 14.46 20.33 8.79C20.33 8.6 20.33 8.42 20.32 8.23C21.16 7.63 21.88 6.87 22.46 6Z" fill="#FE4E00"></path>
  </symbol>
</svg>